<svg width="512" height="512" viewBox="0 0 512 512" fill="none" xmlns="http://www.w3.org/2000/svg">
  <defs>
    <linearGradient id="g1" x1="64" y1="64" x2="448" y2="448" gradientUnits="userSpaceOnUse">
      <stop stop-color="#0F172A"/>
      <stop offset="1" stop-color="#1D4ED8"/>
    </linearGradient>
    <linearGradient id="g2" x1="172" y1="156" x2="346" y2="346" gradientUnits="userSpaceOnUse">
      <stop stop-color="#60A5FA"/>
      <stop offset="1" stop-color="#22D3EE"/>
    </linearGradient>
  </defs>
  <rect x="40" y="40" width="432" height="432" rx="96" fill="url(#g1)"/>
  <rect x="136" y="128" width="240" height="256" rx="44" fill="white" fill-opacity="0.1"/>
  <rect x="164" y="160" width="184" height="64" rx="20" fill="url(#g2)"/>
  <rect x="164" y="244" width="52" height="52" rx="14" fill="white" fill-opacity="0.95"/>
  <rect x="230" y="244" width="52" height="52" rx="14" fill="white" fill-opacity="0.95"/>
  <rect x="296" y="244" width="52" height="52" rx="14" fill="white" fill-opacity="0.95"/>
  <path d="M170 356C186 340 206 332 226 332C252 332 270 345 286 356C300 365 312 372 326 372C338 372 349 366 360 358V388C350 395 338 400 324 400C298 400 280 387 264 376C250 367 238 360 224 360C212 360 199 365 186 376L170 356Z" fill="#F8FAFC"/>
</svg>
